<svg version="1.1" xmlns="http://www.w3.org/2000/svg" style="display: block;" viewBox="0 0 2000 2000" width="500" height="500" preserveAspectRatio="none">
<path transform="translate(0,0)" fill="rgb(254,254,254)" d="M 1114.49 729.307 C 1129.01 729.684 1138.07 734.239 1148.01 744.916 C 1206.81 808.113 1240.23 903.603 1251.55 988.229 C 1261.78 1067.43 1251.48 1147.93 1221.64 1222.01 C 1166.66 1359.92 1058.19 1465.62 922.259 1523.77 C 818.206 1568.2 703.19 1580.3 592.169 1558.49 C 574.477 1555.18 535.03 1546.15 518.709 1539.6 C 508.387 1536.29 490.637 1529.28 489.53 1515.75 C 488.58 1504.14 485.524 1419.71 491.921 1415.16 C 501.465 1408.37 543.094 1426 556.105 1431.08 C 657.236 1470.86 770.087 1468.5 869.467 1424.52 C 976.83 1377.34 1068.74 1288.64 1111.62 1178.49 C 1158.1 1059.12 1134.32 911.477 1052.07 813.037 C 1046.47 806.333 1041.2 800.455 1037.68 792.38 L 1037.07 790.951 C 1039.58 784.206 1042.25 776.822 1046.88 771.298 C 1060.16 755.429 1093.96 731.681 1114.49 729.307 z"/>
<path transform="translate(0,0)" fill="rgb(254,254,254)" d="M 1303.22 518.425 C 1315.6 519.263 1328.12 519.169 1340.46 520.29 C 1377.26 523.634 1486.09 539.204 1508.36 567.414 C 1511.54 571.443 1513.08 576.284 1514.06 581.263 C 1517.17 597.16 1517.35 646.803 1515.41 662.761 C 1515.04 665.793 1514.23 672.509 1511.31 674.215 C 1507.05 676.699 1498.78 674.581 1494.14 673.376 C 1481.91 670.204 1470.07 664.52 1458.12 660.365 C 1433.03 651.525 1407.47 644.116 1381.54 638.174 C 1141.31 585.081 901.375 761.58 866.206 1001.45 C 856.761 1065.87 868.529 1129.43 893.218 1189.3 C 901.798 1210.1 916.576 1232.21 928.759 1251.11 C 940.19 1269.68 972.513 1294.11 952.171 1314.96 C 947.094 1320.49 940.508 1326.57 934.467 1330.97 C 920.407 1341.22 878.851 1375.88 862.587 1358.53 C 851.16 1346.35 836.739 1324.94 827.319 1310.71 C 733.563 1169.04 717.15 977.51 799.272 826.724 C 802.652 820.515 805.898 813.763 809.156 807.361 C 821.25 783.599 836.648 761.845 852.31 740.385 C 864.019 721.65 883.331 707.075 896.674 690.664 C 922.716 658.633 954.961 634.658 989.861 612.856 C 1004.4 603.774 1021.45 592.332 1037 584.726 C 1104.22 551.868 1176.56 528.16 1251.25 520.626 C 1266.47 519.101 1287.71 518.972 1303.22 518.425 z"/>
<path transform="translate(0,0)" fill="rgb(254,254,254)" d="M 1591.82 549.42 C 1657.11 550.943 1750.51 557.265 1794.13 612.687 C 1840.75 671.925 1830.62 771.936 1833.17 843.12 C 1834.4 877.407 1832.17 907.356 1846.05 940.207 C 1859.31 971.613 1879.31 990.716 1912.14 1000.33 C 1923.48 1003.82 1936.94 1006.59 1947.36 1011.02 L 1948.67 1011.58 C 1949.42 1013.48 1950.13 1015.4 1950.7 1017.36 C 1954.37 1030.01 1956.79 1070.12 1950.12 1081.19 C 1944.54 1090.44 1930.08 1091.86 1920.6 1094.44 C 1896.76 1100.94 1872.22 1112.51 1857.47 1133.17 C 1808.49 1201.77 1859.01 1377.37 1805.02 1470.27 C 1784.01 1506.43 1747.06 1525.8 1707.74 1536.23 C 1673.62 1544.02 1638.49 1547.89 1603.38 1548.43 C 1599.46 1548.49 1588.8 1546.56 1586.72 1542.65 C 1576.43 1522.96 1582.46 1498.96 1582.7 1477.72 C 1582.9 1460.44 1603.97 1461.27 1615.99 1460.17 C 1658.28 1456.31 1693.04 1442.79 1702.22 1397.44 C 1708.16 1368.1 1707.98 1341.23 1707.98 1311.4 C 1708.42 1264.28 1706.62 1216.76 1711.89 1169.9 C 1714.82 1136.67 1727.39 1116.53 1750.23 1093.58 C 1767.06 1076.67 1778.03 1067.04 1799.51 1055.64 C 1802.16 1054.23 1804.53 1050.28 1804.87 1047.03 C 1802.69 1041.96 1794.09 1037.29 1789.47 1034.35 C 1679.12 964.082 1715.91 819.339 1706.72 710.01 C 1703.37 670.173 1673.08 647.945 1635.95 640.525 C 1619.16 637.168 1598.85 636.69 1585.25 625.505 C 1578.24 610.45 1575.16 557.751 1591.82 549.42 z"/>
<path transform="translate(0,0)" fill="rgb(254,254,254)" d="M 383.249 549.484 C 390.985 549.323 407.798 547.437 412.111 555.046 C 420.657 570.125 425.118 623.161 406.342 630.689 C 385.624 638.995 353.081 635.852 331.952 647.546 C 282.417 676.531 290.156 750.41 290.609 799.25 C 290.666 818.338 290.615 837.425 290.457 856.512 C 290.309 886.397 291.895 911.812 282.578 940.382 C 268.546 983.412 247.927 1018.2 205.334 1037.81 C 201.58 1039.54 197.27 1041.86 195.981 1045.97 C 197.796 1055.5 209.428 1060.64 216.735 1065.92 C 225.196 1072.05 235.083 1079.1 242.059 1086.87 C 259.15 1106 271.894 1128.62 279.414 1153.15 C 295.485 1204.01 288.963 1284.68 290.973 1338.63 C 291.686 1357.76 290.692 1378.58 294.298 1397.71 C 295.798 1406.65 299.863 1414.2 304.755 1421.55 C 325.166 1452.22 364.424 1458.41 398.23 1462.74 C 401.922 1463.21 408.868 1465.85 410.748 1469.91 C 419.416 1488.61 417.126 1513.11 414.954 1533.17 C 408.95 1563.31 332.057 1545.32 314.751 1540.87 C 298.797 1536.59 287.134 1534.39 271.249 1528.83 C 181.072 1497.25 171.921 1431.56 169.519 1347.27 C 168.278 1303.72 168.696 1259.89 166.53 1216.3 C 165.523 1196.04 166.453 1170.35 157.249 1152.13 C 144.198 1126.59 121.672 1107.17 94.4879 1098.02 C 82.2272 1093.88 67.6177 1090.9 54.2541 1086.58 C 51.1163 1077.48 49.7174 1069.17 49.319 1059.55 C 48.8937 1049.27 47.0008 1025.32 51.0417 1016.53 C 61.0348 994.81 132.587 1010.38 158.32 933.556 C 166.21 910.003 166.832 884.194 167.601 859.564 C 169.3 805.096 164.622 724.928 176.885 673.909 C 182.267 651.513 192.004 629.284 206.142 610.992 C 208.318 608.175 210.625 605.461 213.056 602.861 C 249.642 563.822 332.106 551.374 383.249 549.484 z"/>
<path transform="translate(0,0)" fill="rgb(254,254,254)" d="M 608.803 314.329 C 631.846 312.482 673.002 314.941 698.365 315.058 L 761.548 315.064 C 778.136 315.07 812.224 312.737 824.666 324.546 C 844.281 343.108 864.021 361.857 882.076 381.973 C 905.408 407.951 876.416 421.347 864.202 438.974 C 853.68 454.161 798.922 508.217 800.506 519.781 C 802.323 522.685 804.93 525.104 808.262 526.091 C 837.778 534.84 868.46 539.653 897.65 549.764 C 914.951 555.757 926.004 561.842 934.273 578.708 C 926.886 597.719 912.308 607.444 897.808 620.042 C 885.121 631.063 866.43 655.623 848.574 653.647 C 828.322 651.406 802.521 644 782.673 638.735 C 763.408 635.399 750.882 631.956 730.051 630.272 C 670.024 625.418 613.075 637.24 556.107 655.352 C 538.206 661.043 514.238 672.43 496.182 673.605 C 494.272 673.729 492.136 673.125 491.472 671.576 C 485.805 658.354 488.442 581.118 492.701 571.721 C 501.941 551.333 578.161 536.505 598.863 525.284 C 601.746 523.721 601.744 522.701 602.485 520.277 C 600.105 509.469 520.759 425.544 508.736 406.672 C 514.158 378.072 541.154 362.195 558.298 340.952 C 574.553 320.809 584.626 318.478 608.803 314.329 z"/>
<path transform="translate(0,0)" fill="rgb(254,254,254)" d="M 1215.19 1449.28 C 1224.71 1452.18 1230.82 1454.52 1239.78 1459.35 C 1292.46 1487.72 1346.1 1522.68 1396.41 1554.45 C 1418.36 1568.31 1557.4 1647.07 1561.81 1661.05 C 1558.35 1680.22 1471.85 1684.04 1455.94 1699.66 C 1449.22 1706.26 1465.7 1727.57 1469.71 1734.09 C 1481.03 1753.16 1493.9 1771.77 1505.09 1790.87 C 1516.28 1810 1534.36 1826.3 1534.52 1848.72 C 1530.64 1854.8 1529.93 1855.28 1524.62 1859.9 C 1514.5 1869.42 1484.84 1885.57 1470.95 1890 C 1447.99 1879.72 1427.46 1842.78 1413.55 1821.58 C 1405.03 1808.49 1396.3 1795.55 1387.35 1782.75 C 1383.05 1776.5 1372.52 1758.15 1365.59 1758.67 C 1356.3 1759.38 1341.34 1781.91 1335.95 1788.72 C 1325.2 1802.17 1314.15 1815.37 1302.8 1828.32 C 1296.88 1835.01 1284.26 1850.74 1275.04 1841.45 C 1266.09 1818.28 1260.82 1769.5 1256.97 1744.53 L 1238.18 1628.8 C 1233.31 1597.7 1206.94 1469.9 1215.19 1449.28 z"/>
<path transform="translate(0,0)" fill="rgb(254,254,254)" d="M 1128.17 1452.38 C 1134.13 1451.83 1140.11 1451.38 1144.02 1456.94 C 1160.2 1479.89 1158.08 1512.9 1159.37 1539.71 C 1159.49 1542.23 1160.16 1542.41 1159.37 1544.9 C 1147.4 1553.01 1117.62 1539.59 1105.42 1534.83 C 1098.29 1533.1 1082.58 1526.05 1076.25 1522.42 C 1041.67 1502.56 1081.23 1486.36 1097.25 1475.59 C 1108.52 1468.03 1117.16 1458.41 1128.17 1452.38 z"/>
</svg>